<?xml version="1.0" encoding="utf-8"?>
<!-- Generator: Adobe Illustrator 21.0.2, SVG Export Plug-In . SVG Version: 6.00 Build 0)  -->
<svg version="1.1" id="Layer_1" xmlns="http://www.w3.org/2000/svg" xmlns:xlink="http://www.w3.org/1999/xlink" x="0px" y="0px"
	 viewBox="0 0 100 100" style="enable-background:new 0 0 100 100;" xml:space="preserve">
<style type="text/css">
	.st0{fill:#E5E5E5;}
</style>
<g id="icon_x2F_social_x2F_group_x5F_24px">
	<path id="icon_x2F_social_x2F_group_x5F_24px_x5F_2" class="st0" d="M38.2,50C45.8,50,52,43.9,52,36.4s-6.2-13.6-13.8-13.6
		c-7.6,0-13.8,6.1-13.8,13.6S30.6,50,38.2,50z M10.6,70.4c0-9.1,18.4-13.6,27.6-13.6c9.2,0,27.6,4.6,27.6,13.6v6.8H10.6V70.4z
		 M38.2,64.6c-7.1,0-15,2.6-18.4,4.9h36.7C53.2,67.2,45.2,64.6,38.2,64.6z M44.1,36.4c0-3.2-2.6-5.8-5.9-5.8c-3.3,0-5.9,2.6-5.9,5.8
		c0,3.2,2.6,5.8,5.9,5.8C41.5,42.2,44.1,39.6,44.1,36.4z M65.9,57c4.6,3.3,7.7,7.6,7.7,13.4v6.8h15.8v-6.8
		C89.4,62.6,75.6,58.1,65.9,57z M75.6,36.4c0,7.5-6.2,13.6-13.8,13.6c-2.1,0-4.1-0.5-5.9-1.4c2.5-3.5,3.9-7.7,3.9-12.3
		s-1.5-8.8-3.9-12.3c1.8-0.9,3.8-1.4,5.9-1.4C69.4,22.8,75.6,28.9,75.6,36.4z"/>
</g>
</svg>
