<?xml version="1.0" encoding="utf-8"?>
<!-- Generator: Adobe Illustrator 21.0.2, SVG Export Plug-In . SVG Version: 6.00 Build 0)  -->
<svg version="1.1" id="Layer_1" xmlns="http://www.w3.org/2000/svg" xmlns:xlink="http://www.w3.org/1999/xlink" x="0px" y="0px"
	 viewBox="0 0 100 100" style="enable-background:new 0 0 100 100;" xml:space="preserve">
<style type="text/css">
	.st0{fill:#969696;}
</style>
<title>Artboard 1</title>
<path class="st0" d="M50,10.2C28,10.2,10.2,28,10.2,50S28,89.8,50,89.8C72,89.8,89.8,72,89.8,50S72,10.2,50,10.2z M77.5,34.1H65.8
	c-1.3-5-3.1-9.7-5.5-14.2C67.6,22.4,73.7,27.5,77.5,34.1z M50,18.3c3.3,4.8,5.9,10.1,7.6,15.8H42.4C44.1,28.4,46.7,23.1,50,18.3z
	 M19.2,58c-0.6-2.5-1-5.2-1-8s0.4-5.4,1-8h13.4c-0.3,2.6-0.6,5.3-0.6,8s0.2,5.3,0.6,8H19.2z M22.5,65.9h11.7c1.3,5,3.1,9.7,5.5,14.2
	C32.4,77.6,26.3,72.5,22.5,65.9z M34.2,34.1H22.5c3.8-6.6,9.9-11.7,17.2-14.2C37.3,24.3,35.5,29.1,34.2,34.1z M50,81.7
	c-3.3-4.8-5.9-10.1-7.6-15.8h15.2C55.9,71.6,53.3,76.9,50,81.7z M59.3,58H40.7c-0.4-2.6-0.6-5.3-0.6-8s0.3-5.4,0.6-8h18.6
	c0.4,2.6,0.6,5.3,0.6,8S59.7,55.3,59.3,58z M60.3,80.1c2.4-4.4,4.2-9.2,5.5-14.2h11.7C73.7,72.5,67.6,77.6,60.3,80.1z M67.3,58
	c0.3-2.6,0.6-5.3,0.6-8s-0.2-5.3-0.6-8h13.4c0.6,2.5,1,5.2,1,8s-0.4,5.4-1,8H67.3z"/>
</svg>
