<svg id="Layer_1" data-name="Layer 1" xmlns="http://www.w3.org/2000/svg" viewBox="0 0 100 100"><defs><style>.cls-1,.cls-2{fill:#e5e5e5;}.cls-1{opacity:0.6;}</style></defs><title>Artboard 1</title><polygon class="cls-1" points="89 85.12 89 22.83 75.13 33.34 89 85.12"/><path class="cls-1" d="M88.16,12.31H70.59a.83.83,0,0,0-.81,1.06l4.84,18.08,14-10.64a.83.83,0,0,0,.33-.67v-7A.84.84,0,0,0,88.16,12.31Z"/><path class="cls-2" d="M68.39,87.47H86.74a.84.84,0,0,0,.82-1.06L73.64,34.46l-5.76,4.36a.84.84,0,0,0-.33.67V86.63A.84.84,0,0,0,68.39,87.47Z"/><polygon class="cls-2" points="67.7 12.31 67.55 12.31 67.55 36.8 73.13 32.57 67.7 12.31"/><polygon class="cls-2" points="11 85.33 11 23.05 24.87 33.55 11 85.33"/><path class="cls-2" d="M11.85,12.53H29.4a.85.85,0,0,1,.82,1.06L25.38,31.66,11.34,21a.83.83,0,0,1-.34-.68v-7A.85.85,0,0,1,11.85,12.53Z"/><path class="cls-2" d="M31.62,87.69H13.24a.83.83,0,0,1-.8-1l13.92-52L32.12,39a.82.82,0,0,1,.33.66V86.86A.83.83,0,0,1,31.62,87.69Z"/><polygon class="cls-2" points="32.3 12.53 32.45 12.53 32.45 37.02 26.87 32.79 32.3 12.53"/><path class="cls-2" d="M64.34,13.44,52.19,23.69a.83.83,0,0,0,0,1.25L64.34,35.23a.82.82,0,0,0,1.35-.62V14.07A.82.82,0,0,0,64.34,13.44Z"/><path class="cls-2" d="M50,25.54,35.69,13.48a.84.84,0,0,0-1.38.64V37.86a.84.84,0,0,0,.34.67L49.5,49.73a.84.84,0,0,0,1,0l14-10.57a.84.84,0,0,0,0-1.31L50,25.54Z"/></svg>