<?xml version="1.0" encoding="utf-8"?>
<!-- Generator: Adobe Illustrator 21.0.2, SVG Export Plug-In . SVG Version: 6.00 Build 0)  -->
<svg version="1.1" id="Layer_1" xmlns="http://www.w3.org/2000/svg" xmlns:xlink="http://www.w3.org/1999/xlink" x="0px" y="0px"
	 viewBox="0 0 100 100" style="enable-background:new 0 0 100 100;" xml:space="preserve">
<style type="text/css">
	.st0{fill:#969696;}
</style>
<title>Artboard 1</title>
<g>
	<polygon class="st0" points="54,58.2 62,58.2 62,45.9 74,45.9 74,37.7 62,37.7 62,25.4 54,25.4 54,37.7 42,37.7 42,45.9 54,45.9 	
		"/>
	<path class="st0" d="M18,25.4h-8v57.4c0,4.5,3.6,8.2,8,8.2h56v-8.2H18V25.4z"/>
	<path class="st0" d="M82,9H34c-4.4,0-8,3.7-8,8.2v49.2c0,4.5,3.6,8.2,8,8.2h48c4.4,0,8-3.7,8-8.2V17.2C90,12.7,86.4,9,82,9z
		 M82,66.4H34V17.2h48V66.4z"/>
</g>
</svg>
